<svg xmlns="http://www.w3.org/2000/svg" xmlns:xlink="http://www.w3.org/1999/xlink" width="25" height="24" version="1.1" viewBox="0 0 25 24"><title>security_administrations</title><g id="Page-1" fill="none" fill-rule="evenodd" stroke="none" stroke-width="1"><g id="security_administrations" transform="translate(0.500000, 0.000000)"><rect id="Rectangle" width="24" height="24" x="0" y="0"/><g id="Group" fill-rule="nonzero" transform="translate(0.967187, 2.125000)"><path id="Path" fill="#1967D2" d="M2.0990625,14.125 L4.6853125,18.605 C5.0940625,19.31375 5.8503125,19.75 6.6678125,19.75 L12.1753125,19.75 L11.1840625,16.74125 L8.8015625,14.125 L5.4503125,13.5425 L2.0990625,14.125 Z"/><path id="Path" fill="#1967D2" d="M21.7903125,8.73 L19.2790625,4.38 L17.1190625,6.77125 L15.8440625,9.875 L17.2290625,13.19625 L19.2628125,15.39625 L21.7903125,11.02 C22.1990625,10.31125 22.1990625,9.43875 21.7903125,8.73 Z"/><path id="Path" fill="#1967D2" d="M12.1765625,0 L6.6690625,0 C5.8515625,0 5.0953125,0.43625 4.6865625,1.145 L2.0990625,5.625 L5.4503125,6.2075 L8.8015625,5.625 L11.2478125,3.00875 L12.1765625,0 Z"/><path id="Path" fill="#4285F4" d="M6.2515625,9.875 L8.8015625,5.625 L2.0990625,5.625 L0.3065625,8.73 C-0.1021875,9.43875 -0.1021875,10.31125 0.3065625,11.02 L2.0990625,14.125 L8.8015625,14.125 L6.2515625,9.875 Z"/><path id="Path" fill="#4285F4" d="M13.2940625,5.625 L15.8440625,9.875 L19.2778125,4.38 L17.4103125,1.145 C17.0015625,0.43625 16.2453125,0 15.4278125,0 L12.1765625,0 L8.8015625,5.625 L13.2940625,5.625 Z"/><path id="Path" fill="#4285F4" d="M13.2940625,14.125 L8.8015625,14.125 L12.1765625,19.75 L15.4278125,19.75 C16.2453125,19.75 17.0015625,19.31375 17.4103125,18.605 L19.2628125,15.39625 L15.8440625,9.875 L13.2940625,14.125 Z"/></g></g></g></svg>